<svg fill="none" height="55" viewBox="0 0 200 55" width="200" xmlns="http://www.w3.org/2000/svg"><path d="m42.7549 54.5072c.8464 0 1.6927-.0908 2.522-.2726 2.2267-.4658 4.2545-1.5961 5.8336-3.2377 2.8912-3.0162 4.0329-7.3104 3.0219-11.3661-1.0054-4.1011-3.8853-7.0832-8.1738-8.3953-1.0111-.3011-2.0563-.4772-3.1128-.5283-5.5439-.2897-5.9926-4.6464-5.9869-6.1005.4317-4.9589 4.7429-5.4644 5.6745-5.5155 4.3226-.0739 5.6575 3.9534 5.7938 4.4078l5.9017-1.6416c-.8577-3.1411-4.4192-9.0372-11.8602-8.8952-3.7546.1136-10.9685 2.6186-11.6331 11.2639v.142c-.1534 4.7543 2.8742 11.9966 11.7921 12.4567.5567.017 1.1077.1079 1.6359.2669 2.1869.6703 3.5274 2.0165 4.033 3.9648.5169 2.0222-.0455 4.1636-1.4883 5.6689-.727.7725-1.6756 1.3007-2.7151 1.5109-1.8063.3863-3.6921-.0852-5.1065-1.278-.852-.7271-1.4825-1.6814-1.8233-2.7493l-5.8336 1.8972c1.6075 5.0043 6.2653 8.3954 11.5194 8.3897z" fill="#c6203d"/><path d="m30.7299 47.5093 2.4084 4.3454c-4.033 1.6756-8.5658 2.6981-12.3147 2.6981-3.8512.0454-7.6399-.9373-10.97416-2.8572-5.23147-3.0332-8.75888-8.3328-9.531387-14.3311-1.050838-8.7305.533939-13.5189 4.566887-17.3587v-10.24713h8.11136v4.73733c1.5677-.8691 3.2774-1.7666 5.1122-2.7379l2.3629-1.261 1.3803-.73275 10.1392 7.71375-2.1187 4.6009-8.4919-6.5152-.9827.5056c-13.10426 6.9241-16.63166 8.7872-15.21161 20.6646.5737 4.493 3.21499 8.4635 7.14001 10.7299 4.9475 2.8912 11.4854 2.9309 18.4039.0454z" fill="#231f20"/><path d="m18.9947 38.029h-8.1682v-8.1738h8.1682zm-5.7143-2.4538h3.2718v-3.2661h-3.2718z" fill="#231f20"/><path d="m29.8722 38.029h-8.1738v-8.1738h8.1738zm-5.72-2.4538h3.2661v-3.2661h-3.2661z" fill="#231f20"/><path d="m0 52.9168s1.78926-14.5129 16.1715-19.5115c14.2062-4.9361 20.392-21.6699 20.392-21.6699s-8.4976 15.8704-20.9373 20.4487c-12.94514 4.7827-14.904814 13.4507-15.6262 20.7327z" fill="#18b04c"/><path d="m43.0105 0c-.301.647543-.6873 4.22607-.869 6.10054-.0512.50554-.0966 1.04516-.1136 1.56774-.1591 6.91282-6.6004 9.98012-8.0091 10.58222-.1761.0682-.4544.1988-.4544.1988l1.1758-2.0619c.4203-.8236.8009-1.6643 1.1417-2.522.5055-1.2383 1.1076-2.5675 1.2099-3.0673l-2.3119 3.3058-2.4822 3.7149s-.0341-.1874-.0455-.2442c-.1817-.9202-1.4541-8.6226 4.4192-12.45674.5851-.38057 1.1645-.7725 1.7155-1.19284 1.5052-1.1758 4.2431-3.339959 4.6236-3.92502z" fill="#18b04c"/><path d="m51.2468 29.8835c-.5793-.4146-2.681-3.3399-3.7716-4.8793-.3011-.426-.6021-.8634-.8691-1.3121-3.5558-5.9301-11.0877-4.9588-12.5987-4.7714-.1874.0228-.5055.0512-.5055.0512l2.0165 1.2098c.7668.5056 2.1812 1.2099 2.9593 1.7098 1.1077.7043 2.7038 1.6927 3.0219 2.0846l-3.3286-1.7495c-.7384-.3522-1.4541-.7384-2.1528-1.1701l-2.7662-1.7438.0795.2385c.301.8918 2.8628 8.5658 9.8608 9.0088.6987.0398 1.3973.0909 2.0846.1932 1.8916.2726 5.3394.8066 5.9643 1.1303z" fill="#18b04c"/><g fill="#231f20"><path d="m73.8824 26.305 4.067 1.2894c-.6248 2.2664-1.6586 3.9477-3.1071 5.0497-1.4484 1.102-3.2888 1.6529-5.5154 1.6529-2.7549 0-5.0213-.9429-6.7992-2.8287s-2.6641-4.459-2.6641-7.7251c0-3.4535.8918-6.1403 2.6754-8.0545s4.1295-2.8685 7.0378-2.8685c2.539 0 4.601.7498 6.1914 2.2494.9429.8861 1.653 2.1641 2.1244 3.8227l-4.1522.9941c-.2443-1.0793-.7555-1.9256-1.5393-2.5504-.7839-.6249-1.7268-.9373-2.8402-.9373-1.5393 0-2.7889.551-3.7489 1.6586-.9599 1.1077-1.4371 2.8969-1.4371 5.3678 0 2.6243.4715 4.4931 1.4144 5.6121.9429 1.1133 2.1698 1.67 3.6808 1.67 1.1133 0 2.0732-.3522 2.8742-1.0622.8009-.7101 1.3802-1.8234 1.7267-3.3457z"/><path d="m79.9432 23.6864c0-2.113.3181-3.8909.9486-5.328.4715-1.0565 1.119-2.0051 1.9313-2.8458.8179-.8407 1.7097-1.4655 2.6867-1.8688 1.2951-.5453 2.7833-.8236 4.476-.8236 3.0617 0 5.5098.9486 7.3445 2.8458 1.8348 1.8972 2.7547 4.5385 2.7547 7.9182s-.9086 5.9756-2.7319 7.8671c-1.8234 1.8915-4.2602 2.8401-7.3105 2.8401-3.0502 0-5.5438-.943-7.3672-2.8288-1.8233-1.8858-2.7322-4.476-2.7322-7.7819zm4.3227-.142c0 2.3516.5453 4.1352 1.6302 5.3451 1.0849 1.2156 2.4652 1.8177 4.1352 1.8177s3.0446-.6021 4.1124-1.8064c1.0736-1.2042 1.6075-3.0105 1.6075-5.4189s-.5225-4.1522-1.5677-5.328c-1.0452-1.1701-2.4311-1.7552-4.1579-1.7552s-3.1184.5908-4.1806 1.7779c-1.0565 1.1872-1.5848 2.9708-1.5848 5.3621z"/><path d="m102.55 33.9449v-20.7668h6.277l3.766 14.1664 3.726-14.1664h6.288v20.7668h-3.896v-16.3476l-4.124 16.3476h-4.039l-4.107-16.3476v16.3476h-3.896z"/><path d="m126.044 33.9449v-20.7668h14.234v3.5104h-10.042v4.9133h8.668v3.5104h-8.668v8.827h-4.192z"/><path d="m142.136 23.6864c0-2.113.318-3.8909.948-5.328.472-1.0565 1.119-2.0051 1.932-2.8458.818-.8407 1.709-1.4655 2.686-1.8688 1.295-.5453 2.784-.8236 4.476-.8236 3.062 0 5.51.9486 7.345 2.8458s2.755 4.5385 2.755 7.9182-.909 5.9756-2.732 7.8671c-1.824 1.8915-4.261 2.8401-7.311 2.8401s-5.544-.943-7.367-2.8288-2.732-4.476-2.732-7.7819zm4.322-.142c0 2.3516.546 4.1352 1.631 5.3451s2.465 1.8177 4.135 1.8177 3.044-.6021 4.112-1.8064c1.074-1.2042 1.608-3.0105 1.608-5.4189s-.523-4.1522-1.562-5.328c-1.045-1.1701-2.431-1.7552-4.158-1.7552s-3.124.5908-4.181 1.7779c-1.056 1.1872-1.585 2.9708-1.585 5.3621z"/><path d="m164.805 33.9449v-20.7668h8.828c2.22 0 3.834.1874 4.839.5623s1.812 1.0338 2.414 1.9881.909 2.0449.909 3.2718c0 1.5564-.46 2.8458-1.375 3.8625-.914 1.0168-2.283 1.653-4.106 1.92.908.5282 1.653 1.1076 2.243 1.7438.591.6362 1.386 1.7552 2.386 3.374l2.533 4.05h-5.015l-3.034-4.5214c-1.079-1.6132-1.812-2.63-2.209-3.0503-.398-.4203-.818-.71-1.261-.8634s-1.148-.2329-2.113-.2329h-.852v8.668h-4.192zm4.192-11.9852h3.102c2.011 0 3.266-.0852 3.766-.2556s.892-.4601 1.176-.8804c.284-.4204.426-.9373.426-1.5564 0-.6987-.188-1.261-.563-1.6927s-.897-.6987-1.579-.8123c-.341-.0454-1.357-.0682-3.061-.0682h-3.272v5.2713z"/><path d="m189.662 33.9449v-17.2564h-6.163v-3.5104h16.501v3.5104h-6.146v17.2507h-4.192z"/><path d="m90.8322 48.2249 1.4939-.1307c.0682.5965.2329 1.0906.4942 1.4712.2556.3863.6589.693 1.2042.9316.5453.2385 1.1588.3521 1.8347.3521.6021 0 1.136-.0909 1.6018-.2669.4601-.1818.8066-.4261 1.0338-.7385s.3408-.6532.3408-1.0224-.1079-.7043-.3237-.9827c-.2159-.2783-.5794-.5169-1.0793-.7043-.3238-.125-1.0338-.3181-2.1301-.5851-1.1019-.2613-1.8687-.5112-2.3118-.7441-.5737-.301-.9997-.6703-1.278-1.1133-.2784-.4431-.4204-.9372-.4204-1.4882 0-.6021.1704-1.1701.5169-1.6927.3408-.5226.8407-.9259 1.4996-1.1929.6589-.2726 1.3916-.4089 2.1926-.4089.8861 0 1.6699.142 2.3459.426.6759.284 1.1985.7043 1.562 1.261.3636.5566.5624 1.1815.5851 1.8858l-1.5166.1136c-.0795-.7555-.3579-1.3292-.8293-1.7154-.4715-.3863-1.1645-.5794-2.0847-.5794s-1.6529.1761-2.096.5283c-.4373.3521-.6589.7725-.6589 1.2667 0 .4316.1534.7838.4658 1.0621.3067.2784 1.102.5624 2.3857.8521 1.2894.2897 2.1698.5453 2.647.7611.6986.3181 1.2099.7271 1.545 1.2213.3296.4942.4996 1.0622.4996 1.704 0 .6419-.182 1.2383-.5451 1.8007-.3635.5623-.8861.9997-1.5734 1.3121s-1.4541.4714-2.3061.4714c-1.085 0-1.9881-.159-2.7209-.4714-.7327-.3181-1.3064-.7896-1.7211-1.4257-.4146-.6362-.6361-1.3519-.6589-2.1528z"/><path d="m107.657 46.2426c0-1.9881.534-3.5388 1.602-4.6635s2.442-1.687 4.129-1.687c1.108 0 2.102.2613 2.988.7895.886.5283 1.562 1.261 2.028 2.2096.466.943.698 2.0165.698 3.2094 0 1.1928-.244 2.3004-.732 3.2547-.489.96-1.182 1.6813-2.079 2.1755-.898.4942-1.869.7384-2.908.7384-1.125 0-2.136-.2726-3.022-.8179s-1.562-1.2894-2.017-2.2266c-.454-.9429-.687-1.937-.687-2.9878zm1.63.0227c0 1.4427.386 2.5788 1.165 3.4081.778.8293 1.749 1.244 2.919 1.244s2.17-.4204 2.942-1.2554c.773-.835 1.154-2.0278 1.154-3.5671 0-.9713-.165-1.8234-.495-2.5504-.329-.7271-.812-1.2894-1.442-1.6871-.637-.3976-1.347-.6021-2.136-.6021-1.119 0-2.085.3863-2.891 1.1531-.807.7725-1.21 2.0562-1.21 3.8569z"/><path d="m126.691 52.0704v-11.9625h1.585v10.5538h5.89v1.4144h-7.475z"/><path d="m140.352 52.0704 4.596-11.9625h1.704l4.896 11.9625h-1.806l-1.398-3.624h-5.004l-1.312 3.624h-1.681zm3.454-4.9134h4.055l-1.249-3.3115c-.381-1.0054-.665-1.8347-.847-2.4823-.153.7669-.369 1.528-.647 2.2835z"/><path d="m158.461 52.0704v-11.9625h5.305c1.068 0 1.874.1079 2.431.3238.557.2158 1 .5964 1.329 1.136.33.5453.5 1.1474.5 1.8063 0 .8464-.273 1.5621-.824 2.1471-.551.5851-1.397.9543-2.544 1.1077.42.1988.738.3976.954.5964.46.426.897.9543 1.312 1.5905l2.079 3.2547h-1.994l-1.584-2.4879c-.461-.7157-.841-1.2667-1.142-1.6473-.301-.3805-.568-.6475-.807-.8009-.238-.1533-.477-.2613-.721-.3181-.182-.0397-.472-.0568-.881-.0568h-1.834v5.311h-1.585zm1.584-6.6856h3.403c.721 0 1.289-.0738 1.698-.2272.409-.1477.716-.3862.932-.7157.21-.3294.318-.6873.318-1.0736 0-.568-.205-1.0281-.614-1.3973-.409-.3635-1.062-.5453-1.948-.5453h-3.789z"/></g></svg>