<svg fill="none" height="73" viewBox="0 0 200 73" width="200" xmlns="http://www.w3.org/2000/svg"><g fill="#f5bb22"><path d="m39.5493 22.231c-.222 0-.4011.1788-.4011.401 0 .2221.1791.401.4011.401.2223 0 .401-.1789.401-.401 0-.2222-.1787-.401-.401-.401z"/><path d="m39.5492 23.7957c-.1472 0-.2672.1198-.2672.2673 0 .1474.12.2673.2672.2673.1476 0 .2673-.1199.2673-.2673 0-.1475-.1197-.2673-.2673-.2673z"/><path d="m40.4161 20.2238c-1.771 0-3.2081-1.435-3.2081-3.2081s1.4352-3.2081 3.2081-3.2081c.9455 0 1.7948.4088 2.3825 1.0615-.6901-1.0242-1.8614-1.6984-3.1904-1.6984-2.123 0-3.845 1.722-3.845 3.845 0 1.9716 1.4841 3.5954 3.3968 3.8175-.0905.0964-.1453.2241-.1453.3656 0 .2949.2396.5347.5345.5347.2948 0 .5348-.2398.5348-.5347 0-.1356-.0513-.2594-.1357-.3538 1.1875-.1042 2.2192-.747 2.8503-1.6827-.5877.6507-1.437 1.0615-2.3825 1.0615z"/><path d="m40.7249 16.4672-.4263-1.3151-.4268 1.3151h-1.3818l1.1184.8119-.4286 1.3151 1.1188-.8119 1.1184.8119-.4267-1.3151 1.1184-.8119z"/></g><path d="m39.5491 24.4876s-2.634 2.5948-13.2649 12.0875c-5.2604 4.6963-6.5539 12.1545-4.3169 18.2973-.0354-4.3169 1.6061-8.671 5.0638-11.7591 10.0314-8.9581 12.518-11.4074 12.518-11.4074l3.7349-3.735c-2.8404-2.6066-3.7349-3.4853-3.7349-3.4853z" fill="#764b9e"/><path d="m52.8125 36.575c-4.4427-3.9669-7.4897-6.7308-9.5303-8.6022l-3.7348 3.7349s2.4868 2.4494 12.5178 11.4074c3.4581 3.0881 5.0995 7.4403 5.0642 11.7591 2.235-6.1447.9432-13.601-4.3169-18.2972z" fill="#916eb0"/><path d="m39.5492 37.1176s-1.5391 1.5177-7.751 7.0631c-3.0744 2.7441-3.8293 7.102-2.522 10.6916-.0217-2.5221.9376-5.0657 2.9584-6.8701 5.862-5.2352 7.3146-6.6661 7.3146-6.6661l2.182-2.1821c-1.6609-1.5234-2.182-2.0364-2.182-2.0364z" fill="#764b9e"/><path d="m47.2986 44.1807c-2.5969-2.3197-4.376-3.9335-5.5692-5.0266l-2.182 2.182s1.4527 1.4309 7.3144 6.6661c2.021 1.8044 2.9804 4.348 2.9589 6.8701 1.3071-3.5915.5502-7.9475-2.5221-10.6916z" fill="#916eb0"/><path d="m39.5493 65.069s13.7486-8.1799 29.8446-5.9445l1.7472 5.9445s-18.8063-2.9861-31.5918 7.6921z" fill="#916eb0"/><path d="m39.5491 65.069s-13.7485-8.1799-29.84424-5.9445l-1.74758 5.9445s18.80652-2.9861 31.59182 7.6921z" fill="#764b9e"/><path d="m66.7574 27.6525v-16.198h-16.1979l-11.4546-11.4545-11.4544 11.4545h-16.1959v16.198l-11.4546 11.4526 11.4546 11.4546v5.4806c1.3013-.1219 2.5849-.181 3.845-.1829v-6.8881l-9.86226-9.8623 9.86226-9.8622v-13.9472h13.9452l9.8624-9.86225 9.8623 9.86225h13.9449v13.9452l9.8623 9.8623-9.8623 9.8623v6.8957c1.2561-.0233 2.5398.0081 3.8449.1024v-5.4058l11.4547-11.4546-11.4547-11.4546z" fill="#916eb0"/><path d="m89.6763 24.7672h2.8319v14.3746h-2.8319zm9.5693 14.6093c-.7944 0-1.5041-.1825-2.1291-.5472-.625-.3773-1.1196-.9178-1.4842-1.6209-.3516-.7031-.5272-1.5364-.5272-2.4999 0-.9636.1952-1.7839.5859-2.4609.3907-.6771.9244-1.1914 1.6015-1.543s1.4451-.5273 2.3047-.5273c.5468 0 1.0678.0846 1.5628.2539.507.1692.931.4296 1.269.7812v.8594-8.3397h2.715v15.4097h-2.734v-1.66l.214.586c-.443.3647-.937.6772-1.484.9375-.547.2473-1.1785.3712-1.8944.3712zm.8984-2.3048c.365 0 .684-.0456.957-.1367.286-.1042.534-.2474.742-.4297.222-.1953.41-.4362.567-.7227v-2.0897c-.105-.2865-.267-.5274-.489-.7227-.208-.2083-.468-.3646-.781-.4687-.299-.1172-.631-.1758-.996-.1758-.4038 0-.7814.1041-1.133.3125-.3386.1953-.612.4687-.8202.8203-.2082.3515-.3124.7551-.3124 1.2109 0 .4557.1042.8659.3124 1.2304.2082.3646.4816.6511.8202.8594.3516.2083.7292.3125 1.133.3125zm12.012 2.3048c-1.042 0-1.927-.1956-2.656-.5859-.716-.3907-1.263-.9312-1.641-1.6213s-.566-1.4843-.566-2.3827c0-.8594.221-1.6341.664-2.3242.442-.6901 1.035-1.237 1.777-1.6406.742-.4167 1.569-.625 2.48-.625 1.224 0 2.227.3581 3.008 1.0742.794.7031 1.309 1.7252 1.543 3.0663l-6.64 2.1094-.606-1.4843 4.805-1.6211-.567.2539c-.104-.3386-.293-.6315-.566-.8789-.26-.2604-.658-.3906-1.191-.3906-.404 0-.762.0976-1.075.2929-.299.1823-.533.4492-.702.8008-.157.3386-.235.7422-.235 1.2109 0 .5339.098.9831.293 1.3477.195.3515.462.6184.801.8007.338.1823.716.2734 1.132.2734.3 0 .586-.052.86-.1562.286-.1041.566-.2409.84-.4101l1.211 2.031c-.456.2608-.951.469-1.485.625-.521.1564-1.015.2347-1.484.2347zm10.19 0c-.795 0-1.517-.1565-2.168-.469-.638-.3255-1.146-.8202-1.523-1.4843-.378-.664-.567-1.5104-.567-2.539 0-.9635.196-1.7968.586-2.4999.391-.7031.905-1.2435 1.543-1.6211.638-.3906 1.315-.5859 2.031-.5859.847 0 1.485.1432 1.914.4296.443.2735.808.5795 1.094.918l-.117.332.253-1.25h2.54v8.5349h-2.735v-1.8553l.215.586c-.026 0-.104.0781-.234.2343-.13.1433-.326.3192-.586.5274-.247.1951-.56.3646-.938.5076-.364.1564-.801.2347-1.308.2347zm.781-2.2267c.326 0 .619-.0456.879-.1367.26-.1042.488-.2474.684-.4297.195-.1953.364-.4362.507-.7226v-2.0898c-.104-.2865-.26-.5274-.468-.7227-.209-.2083-.456-.3646-.743-.4687-.286-.1172-.605-.1758-.957-.1758-.39 0-.755.1042-1.093.3125-.326.1953-.586.4687-.781.8203-.196.3515-.293.7552-.293 1.2109s.104.8659.312 1.2305c.208.3645.482.651.82.8593.352.2084.73.3125 1.133.3125zm7.622-13.4177h2.734v15.4097h-2.734zm22.507 12.6365h4.453v2.7732h-8.164zm-11.035-4.3945c0-.9896.189-1.927.566-2.8125.378-.8853.899-1.6666 1.563-2.3436.677-.6902 1.458-1.2305 2.344-1.6211.885-.3906 1.836-.5859 2.851-.5859 1.003 0 1.947.1953 2.832.5859.886.3906 1.667.9309 2.344 1.6211.69.677 1.224 1.4583 1.601 2.3436.391.8855.586 1.8229.586 2.8125 0 1.0156-.195 1.9661-.586 2.8515-.377.8854-.911 1.6667-1.601 2.3437-.677.6641-1.458 1.185-2.344 1.5626-.885.3777-1.829.5663-2.832.5663-1.015 0-1.966-.1886-2.851-.5663-.886-.3776-1.667-.8985-2.344-1.5626-.664-.677-1.185-1.4583-1.563-2.3437-.377-.8854-.566-1.8359-.566-2.8515zm2.93 0c0 .625.111 1.2174.332 1.7773.234.5469.553 1.0352.957 1.4649.417.4166.892.7421 1.425.9765.548.2344 1.14.3515 1.778.3515.612 0 1.178-.1171 1.699-.3515.534-.2344.996-.5599 1.387-.9765.39-.4167.696-.8985.918-1.4453.221-.5599.332-1.1589.332-1.7969 0-.625-.117-1.2109-.352-1.7578-.221-.5598-.534-1.0481-.937-1.4648-.391-.4167-.853-.7422-1.387-.9765-.534-.2344-1.113-.3516-1.738-.3516s-1.205.1172-1.738.3516c-.534.2343-1.003.5598-1.407.9765-.403.4167-.716.905-.937 1.4648-.221.5469-.332 1.1328-.332 1.7578zm17.687 7.578c-.769 0-1.413-.2343-1.934-.7032-.521-.4816-.794-1.1001-.82-1.8554v-6.3866h2.734v5.3711c.026.3775.124.6835.293.9179.169.2213.456.332.859.332.404 0 .749-.1367 1.035-.4101.3-.2735.528-.6445.684-1.1133.169-.4817.254-1.0221.254-1.6211v-3.4765h2.734v8.5349h-2.48l-.215-1.5623.039.1758c-.195.3515-.443.6641-.742.9375-.3.2734-.658.4816-1.074.625-.404.156-.86.2343-1.367.2343zm11.112-8.9452.254 2.3438-.058-.3516c.247-.5078.586-.9375 1.015-1.289.43-.3646.853-.6446 1.27-.8399.429-.1953.755-.2929.976-.2929l-.136 2.7343c-.638-.0781-1.185.026-1.641.3125-.456.2864-.807.664-1.055 1.1328-.247.4687-.371.9505-.371 1.4453v3.3396h-2.715v-8.5349zm8.858 8.7696c-.795 0-1.517-.1565-2.168-.469-.638-.3255-1.146-.8202-1.524-1.4843-.377-.664-.566-1.5104-.566-2.539 0-.9635.195-1.7968.586-2.4999s.905-1.2435 1.543-1.6211c.638-.3906 1.315-.5859 2.031-.5859.846 0 1.484.1432 1.914.4296.443.2735.807.5795 1.094.918l-.117.332.254-1.25h2.539v8.5349h-2.735v-1.8553l.215.586c-.026 0-.104.0781-.234.2343-.131.1433-.326.3192-.586.5274-.248.1951-.56.3646-.937.5076-.365.1564-.801.2347-1.309.2347zm.781-2.2267c.325 0 .618-.0456.879-.1367.26-.1042.488-.2474.683-.4297.196-.1953.365-.4362.508-.7226v-2.0898c-.104-.2865-.26-.5274-.469-.7227-.208-.2083-.455-.3646-.742-.4687-.286-.1172-.605-.1758-.957-.1758-.39 0-.755.1042-1.093.3125-.326.1953-.586.4687-.782.8203-.195.3515-.293.7552-.293 1.2109s.105.8659.313 1.2305c.208.3645.482.651.82.8593.352.2084.729.3125 1.133.3125zm10.103-6.5429.214 1.5234-.039-.1366c.3-.5339.723-.9636 1.27-1.2891.546-.3385 1.217-.5078 2.012-.5078.807 0 1.477.2409 2.011.7226.547.4688.827 1.0808.84 1.836v6.3864h-2.734v-5.3708c-.013-.3776-.117-.6771-.313-.8985-.182-.2343-.495-.3515-.937-.3515-.417 0-.782.1367-1.094.4101-.312.2735-.553.6445-.723 1.1133-.169.4687-.254 1.0091-.254 1.6211v3.4763h-2.734v-8.5349zm-91.313 28.0893 6.484-14.9411h.156l6.485 14.9411h-3.282l-4.14-10.5076 2.051-1.406-4.961 11.9136zm4.433-5.195h4.317l.996 2.3826h-6.191zm17.298 4.4335c-.378.2994-.853.5402-1.426.7227-.56.1822-1.113.2734-1.66.2734-.976 0-1.829-.176-2.559-.5276-.716-.3646-1.276-.8788-1.679-1.5429-.391-.6771-.586-1.4907-.586-2.4412s.215-1.7579.645-2.422c.429-.6771.989-1.1913 1.679-1.5429.703-.3516 1.439-.5272 2.207-.5272s1.432.1043 1.992.3125c.573.2082 1.061.4815 1.465.8201l-1.328 1.758c-.182-.1434-.436-.2864-.762-.4298-.312-.1561-.683-.2343-1.113-.2343-.378 0-.723.0978-1.035.2929-.313.1952-.56.4624-.742.8006-.183.3386-.274.7293-.274 1.1721 0 .4164.098.8006.293 1.1522s.463.6315.801.8401c.351.1951.762.2929 1.23.2929.3 0 .573-.0391.821-.1173.26-.0913.482-.2147.664-.3712zm5.693.9961c-.794 0-1.516-.1564-2.168-.4689-.638-.3255-1.145-.8201-1.523-1.4842s-.566-1.5103-.566-2.539c0-.9636.195-1.7971.586-2.4999.39-.7032.905-1.2438 1.543-1.6211.638-.3907 1.315-.5863 2.031-.5863.846 0 1.484.1434 1.914.4299.442.2733.807.5793 1.093.9179l-.116.332.253-1.2499h2.539v8.5349h-2.734v-1.8554l.215.5859c-.026 0-.104.0782-.235.2346-.13.143-.325.319-.586.5272-.247.1952-.559.3646-.937.5077-.365.1564-.801.2346-1.309.2346zm.782-2.2265c.325 0 .618-.0456.879-.1369.26-.1043.488-.2473.683-.4298.195-.1952.365-.4359.508-.7224v-2.09c-.104-.2864-.261-.5272-.469-.7227-.208-.2082-.456-.3643-.742-.4686-.286-.1173-.605-.1759-.957-.1759-.391 0-.755.1043-1.094.3128-.325.1952-.586.4686-.781.8202s-.293.7553-.293 1.2108c0 .4559.104.8658.313 1.2304.208.3646.481.651.82.8596.351.2082.729.3125 1.133.3125zm11.098 2.2265c-.794 0-1.504-.1825-2.129-.5471-.625-.3773-1.12-.9179-1.484-1.6211-.351-.7028-.527-1.5364-.527-2.4999s.195-1.7837.586-2.4608c.39-.6771.924-1.1913 1.601-1.5429s1.446-.5276 2.305-.5276c.547 0 1.068.0848 1.562.2543.508.169.931.4294 1.27.781v.8596-8.3397h2.715v15.4096h-2.735v-1.6599l.215.5859c-.443.3646-.937.6771-1.484.9375-.547.2473-1.179.3711-1.895.3711zm.899-2.3047c.364 0 .683-.0456.957-.1369.286-.1039.534-.2473.742-.4294.221-.1956.41-.4364.566-.7228v-2.09c-.104-.2864-.267-.5272-.488-.7223-.208-.2086-.469-.3647-.781-.469-.3-.1169-.632-.1756-.996-.1756-.404 0-.781.1039-1.133.3125-.339.1952-.612.4686-.82.8201-.209.3516-.313.7554-.313 1.2109 0 .4559.104.8661.313 1.2308.208.3642.481.651.82.8592.352.2082.729.3125 1.133.3125zm12.012 2.3047c-1.042 0-1.927-.1955-2.657-.5859-.716-.3907-1.263-.9313-1.64-1.621-.378-.6902-.567-1.4846-.567-2.383 0-.8592.222-1.6341.664-2.3243.443-.6901 1.036-1.2369 1.778-1.6406.742-.4164 1.569-.625 2.48-.625 1.224 0 2.227.3581 3.008 1.0743.794.7032 1.308 1.7254 1.543 3.0662l-6.641 2.1096-.605-1.4846 4.804-1.6207-.566.2538c-.104-.3385-.293-.6315-.566-.8788-.26-.2607-.658-.3907-1.191-.3907-.404 0-.762.0974-1.075.293-.299.1821-.533.4489-.703.8005-.156.3386-.234.7423-.234 1.2113 0 .5337.098.9827.293 1.3473.195.3516.462.6184.8.8009.339.1822.717.2734 1.133.2734.3 0 .586-.0521.86-.1564.286-.1039.566-.2408.84-.4099l1.21 2.031c-.455.2607-.95.4689-1.484.625-.521.1564-1.015.2346-1.484.2346zm9.076-8.7695.215 1.5037-.039-.1169c.338-.5728.762-1.0157 1.27-1.3282.507-.3255 1.119-.4885 1.836-.4885.468 0 .878.0652 1.23.1956.365.13.671.3255.918.5859.247.2473.417.5728.508.9765l-.098.0196c.365-.5337.801-.9636 1.309-1.2891.52-.3255 1.061-.4885 1.621-.4885.846 0 1.517.2412 2.011.7228.508.4689.769 1.0808.782 1.8358v6.4062h-2.715v-5.2732c-.013-.3777-.072-.6836-.176-.9179-.104-.2473-.345-.3842-.723-.4103-.442 0-.82.1565-1.132.469-.3.2994-.528.6897-.684 1.1717-.143.4685-.215.957-.215 1.4647v3.496h-2.734v-5.2732c-.013-.3777-.085-.6836-.215-.9179-.117-.2473-.364-.3842-.742-.4103-.43 0-.794.1565-1.094.469-.286.2994-.508.6832-.664 1.1521-.143.469-.215.9505-.215 1.4451v3.5352h-2.734v-8.5349zm15.064 12.6367 5.684-12.6367h2.461l-5.508 12.6367zm2.285-4.0627-4.179-8.574h3.066l3.223 7.2071z" fill="#764b9e"/></svg>