<svg fill="none" height="69" viewBox="0 0 200 69" width="200" xmlns="http://www.w3.org/2000/svg"><path d="m90.8565 33.505c.0985-.3776.204-.7482.3165-1.1119.1195-.3705.2637-.7832.4326-1.2377.1476-.4056.327-.8706.5381-1.395.2111-.5314.4326-1.0698.6647-1.6154.2392-.5454.4713-1.0524.6964-1.5209.225-.4685.429-.8425.612-1.1222.225-.3426.4678-.5978.728-.7658.2673-.1677.6578-.2517 1.1712-.2517h1.3821c.3658 0 .6718.056.9179.168.2533.1048.4326.36.5383.7656.0774.3007.1513.7413.2215 1.3217.0704.5802.1301 1.3845.1794 2.4123.0492 1.0279.0879 2.3495.116 3.9649.0281 1.6083.0424 3.5976.0424 5.9681 0 .1259-.0424.2307-.1267.3147-.0845.084-.1865.1259-.306.1259h-2.4057c-.1197 0-.2217-.0419-.3059-.1259-.0845-.084-.1267-.1922-.1267-.3252 0-1.8459 0-3.4123 0-4.6991 0-1.2865-.0034-2.3528-.0106-3.199-.0071-.8461-.0175-1.5174-.0315-2.0138-.0071-.5035-.0212-.8917-.0424-1.1643h-.0633c-.3727.853-.7701 1.804-1.1921 2.8529-.4221 1.0419-.8337 2.1187-1.2345 3.2306-.4011 1.1048-.7598 2.1853-1.0764 3.2411-.0914.3147-.2074.5349-.3481.6608-.1338.119-.4432.1783-.9285.1783h-1.2134c-.4151 0-.6929-.0525-.8336-.1573-.1336-.1048-.2496-.3321-.3481-.6818-.2321-.7972-.4888-1.6397-.7702-2.5277-.2813-.8883-.5733-1.7587-.8758-2.6119-.2954-.8601-.5839-1.6502-.8652-2.3705-.2744-.7271-.5206-1.332-.7386-1.8145h-.0633c-.0562.8251-.1055 1.8285-.1478 3.0104-.0421 1.1817-.0774 2.4647-.1055 3.8492-.0209 1.3847-.0352 2.7971-.0421 4.2376 0 .1259-.0421.2307-.1266.3147-.0845.0769-.1865.1154-.306.1154h-2.163c-.1195 0-.2215-.0419-.306-.1259-.0843-.084-.1267-.1922-.1267-.3252.0072-3.727.0811-6.7024.2218-8.9259.1475-2.2238.3059-3.7133.4747-4.4684.1126-.4964.3094-.8182.5908-.9649.2885-.1538.6156-.2309.9812-.2309h1.7093c.387 0 .6684.07.8443.2098.1828.133.4043.3951.6646.7867.1548.2307.3376.577.5487 1.0384.218.4616.4432.9755.6753 1.5419.232.5594.4501 1.1153.6541 1.6678.2111.5454.3833 1.0208.5171 1.4264.1406.4127.2707.8146.3902 1.2062.1197.3847.2252.7658.3166 1.1434zm19.9835-8.1919c.387.5383.781 1.2341 1.182 2.0874.408.8459.802 1.776 1.182 2.79.38 1.0139.721 2.0523 1.023 3.1152.31 1.0558.563 2.0734.76 3.0523s.309 1.8495.338 2.6117c.007.3705-.162.5559-.507.5559h-2.553c-.331 0-.503-.1643-.517-.493-.028-.7832-.155-1.7342-.38-2.8529h-5.761c-.197 1.0908-.31 2.0418-.338 2.8529-.014.3287-.193.493-.538.493h-2.5c-.127 0-.233-.035-.317-.1048-.084-.0769-.123-.2065-.116-.3882.035-.7761.148-1.6573.338-2.6433.197-.9928.45-2.0207.759-3.0836.31-1.0629.654-2.1013 1.034-3.1152.38-1.0211.774-1.9544 1.182-2.8006.408-.8461.806-1.5385 1.192-2.0768.204-.2868.419-.4964.644-.6294.232-.1327.517-.1993.855-.1993h1.519c.345 0 .633.0666.865.1993.232.133.45.3426.654.6294zm-2.384 2.4858c-.464.7343-.89 1.6118-1.277 2.6328s-.721 2.0697-1.002 3.1466h4.579c-.295-1.0769-.637-2.1256-1.024-3.1466-.386-1.021-.791-1.8985-1.213-2.6328z" fill="#6ec1e4"/><path d="m86.4799 59.0815c.5135 0 .9145-.0524 1.2028-.1572.2956-.1051.5242-.2344.6858-.3882.1619-.1538.3026-.3076.4221-.4614.1125-.1398.2039-.2449.2744-.3147.0774-.07.1828-.119.3166-.1469.1125-.035.2919-.0559.538-.063.2533-.0139.5029-.0208.7492-.0208.2533 0 .4289.0069.5275.0208.1478.0071.2498.0351.3059.084.0564.049.0914.1538.1057.3147.021.2236.0316.4894.0316.7972.0071.3076.0034.5733-.0106.7972-.0069.0698-.021.1293-.0422.1783-.014.0487-.0492.1222-.1054.2201-.0705.112-.2077.2763-.4117.493-.204.2097-.5028.4301-.8967.6608-.394.2238-.9039.4161-1.5299.577-.6191.1607-1.3823.2412-2.2897.2412-.9707 0-1.878-.1224-2.7223-.3671-.844-.2517-1.5861-.6713-2.2261-1.2588-.6331-.5873-1.1291-1.381-1.4878-2.381-.3518-.9999-.5275-2.248-.5275-3.7444 0-1.6644.2883-3.0768.8651-4.2376.5838-1.1677 1.4104-2.0558 2.4796-2.6641 1.0692-.6084 2.3352-.9125 3.7984-.9125 1.027 0 1.8499.1048 2.469.3147.626.2096 1.1007.4579 1.4244.7445.3235.2797.5521.5246.6859.7342.049.0769.0843.147.1054.2099.0212.0559.0353.1469.0422.2726.0212.168.0246.4127.0106.7342-.0072.3218-.0316.6049-.0739.8498-.0281.1538-.0739.2552-.1373.3042-.028.0279-.0773.0524-.1475.0733-.0705.021-.1759.0315-.3166.0315-.2252 0-.4784-.007-.7598-.021-.2813-.0208-.4922-.0419-.6329-.063-.169-.0279-.2919-.0663-.3693-.1153-.0773-.0559-.1547-.1398-.2323-.2518-.1264-.1817-.3446-.3916-.6541-.6292-.3094-.2378-.8194-.3568-1.5299-.3568-.9987 0-1.8218.3848-2.469 1.1538-.6472.7624-.9707 1.9999-.9707 3.7133 0 1.706.3378 2.9717 1.013 3.7968.6822.8253 1.5122 1.2377 2.49 1.2377zm12.4082 2.8321c-1.7725 0-3.1758-.4685-4.21-1.4055-1.034-.937-1.5509-2.332-1.5509-4.1852 0-1.9019.5346-3.3214 1.6038-4.2584 1.0761-.9439 2.5112-1.4161 4.3047-1.4161 1.7303 0 3.1163.4651 4.1573 1.395 1.041.9231 1.561 2.2867 1.561 4.0907 0 1.8811-.52 3.3146-1.561 4.3005-1.041.986-2.476 1.479-4.3049 1.479zm.1055-2.5384c.7738 0 1.3574-.2376 1.7514-.7132.394-.4825.591-1.3041.591-2.465 0-1.1048-.201-1.8809-.601-2.3283-.394-.4546-.9817-.6819-1.7624-.6819-.7528 0-1.3471.2447-1.7831.7343-.4292.4825-.6438 1.2691-.6438 2.3599 0 1.1398.204 1.9404.612 2.4021.4151.4614 1.0271.6921 1.8359.6921zm18.4754-4.4054v6.1256c0 .2099-.046.3566-.138.4406-.084.0769-.232.1153-.443.1153h-2.173c-.211 0-.362-.0384-.454-.1153-.084-.084-.126-.2307-.126-.4406v-5.58c0-.7623-.162-1.3183-.486-1.6678-.323-.3497-.763-.5246-1.319-.5246-.555 0-.984.119-1.287.3568-.295.2376-.524.5384-.686.902v6.5136c0 .2099-.046.3566-.137.4406-.084.0769-.232.1153-.443.1153h-2.174c-.211 0-.362-.0384-.453-.1153-.085-.084-.127-.2307-.127-.4406v-8.7897c0-.1678.035-.2971.106-.388.147-.1959.323-.3952.527-.598.211-.2028.468-.4195.77-.6502.092-.0701.18-.1049.264-.1049.077 0 .165.0348.264.1049.295.2307.549.4511.76.6607.211.2099.397.4266.559.6503h.053c.119-.1538.299-.3321.538-.5349.239-.2097.573-.3951 1.002-.556.436-.1606.992-.2412 1.667-.2412.661 0 1.291.133 1.889.3987s1.087.7132 1.466 1.3426c.387.6292.581 1.4893.581 2.5801zm5.856 6.9438c-.753 0-1.379-.0629-1.879-.1888-.492-.1259-.889-.2762-1.192-.4511-.295-.1817-.527-.3461-.696-.493-.127-.1188-.141-.2517-.042-.3985l1.076-1.5838c.155-.2238.33-.2378.527-.0421.204.1959.479.3882.823.577.352.1817.788.2728 1.309.2728.464 0 .844-.0771 1.139-.2309.303-.1607.454-.3916.454-.6921 0-.2099-.067-.3811-.201-.5141-.133-.1327-.369-.2691-.706-.409-.338-.1398-.809-.3181-1.414-.5349-.894-.3218-1.569-.7099-2.026-1.1643-.457-.4545-.686-1.1189-.686-1.993 0-.804.222-1.4579.665-1.9615.45-.5033 1.023-.8704 1.72-1.1013.703-.2376 1.435-.3566 2.194-.3566.964 0 1.639.0909 2.026.2728.394.1749.647.3111.76.409.105.0909.179.1959.221.3147.092.2728.162.6329.211 1.0803.028.2589-.038.4301-.2.5141-.084.0489-.218.1014-.401.1572-.183.0561-.366.1051-.549.1469-.183.0419-.32.063-.411.063-.028 0-.06-.0071-.095-.0211-.028-.0208-.081-.0664-.158-.1364-.092-.0908-.25-.1957-.475-.3145-.218-.119-.521-.1785-.908-.1785-.38 0-.7.063-.96.1888-.253.1191-.38.3324-.38.64 0 .3355.162.5873.486.7553.33.1677.872.3845 1.625.6502.59.2028 1.104.4266 1.54.6713.443.2378.784.5523 1.024.9439.239.3847.358.9056.358 1.563 0 .853-.235 1.5419-.707 2.0662-.464.5175-1.062.8952-1.793 1.1328-.725.2309-1.485.3462-2.279.3462zm10.614 0c-2.504 0-3.756-1.5069-3.756-4.5207l-.011-5.3284c0-.1678.035-.2971.106-.3882.295-.3845.728-.8006 1.298-1.2481.098-.07.186-.1048.263-.1048.092 0 .18.0348.264.1048.303.2307.556.4475.76.6503.211.2027.39.4021.538.5978.07.0911.105.2204.105.3882v5.0347c0 1.5173.605 2.276 1.815 2.276.598 0 1.077-.2062 1.435-.6189.359-.4195.538-.9858.538-1.6992v-4.9926c0-.1678.036-.2971.106-.3882.295-.3845.728-.8006 1.298-1.2481.098-.07.186-.1048.263-.1048.092 0 .18.0348.264.1048.303.2307.556.4475.76.6503.211.2027.39.4021.538.5978.07.0911.106.2204.106.3882v9.1044c0 .1327-.046.2483-.138.346-.091.0909-.207.1364-.348.1364h-1.582c-.113 0-.215-.0139-.306-.0418-.085-.0351-.166-.098-.243-.1889l-.654-.839h-.074c-.113.1607-.289.346-.528.5557-.232.2099-.573.3916-1.023.5454-.443.154-1.041.2309-1.794.2309zm10.931-.0421c-.148.063-.253.0945-.316.0945-.064 0-.131-.0244-.201-.0734-.162-.1119-.348-.3845-.559-.8182-.204-.4404-.306-1.1154-.306-2.0242v-12.1462c0-.168.035-.2973.105-.3882.296-.3845.728-.8006 1.298-1.2483.099-.0698.187-.1048.264-.1048.091 0 .179.035.264.1048.302.231.556.4477.76.6505.21.2028.39.4021.538.5978.07.0909.105.2202.105.3882v11.5062c0 .4617.039.8567.116 1.1854.077.3216.169.5804.275.7761.119.2307.073.395-.138.493zm8.905.0421c-2.349 0-3.524-1.2132-3.524-3.6398v-4.9192h-1.192c-.211 0-.359-.0419-.443-.1259-.078-.0908-.116-.2412-.116-.4511v-1.2899c0-.2099.038-.3568.116-.4406.084-.0909.232-.1364.443-.1364h1.192v-1.6887c0-.1679.035-.2973.106-.3881.295-.3845.728-.8006 1.297-1.2483.099-.0698.187-.1048.264-.1048.085 0 .169.035.254.1048.302.2309.555.4477.759.6504.211.2028.391.4022.538.5979.071.0908.106.2202.106.3881v1.6887h1.867c.211 0 .356.0455.433.1364.084.0838.127.2307.127.4406v1.2899c0 .2099-.043.3603-.127.4511-.077.084-.222.1259-.433.1259h-1.867v4.3425c0 1.1187.408 1.6781 1.224 1.6781.126 0 .242-.0105.348-.0314.106-.0279.197-.056.274-.084.148-.0558.25-.0769.306-.0629.064.014.12.0909.169.2307l.612 1.6259c.063.1749.021.3008-.127.3777-.105.0487-.362.1398-.77.2726-.401.1398-1.013.2098-1.836.2098zm7.302 0c-1.034 0-1.857-.2867-2.469-.8601-.605-.5804-.908-1.3776-.908-2.3915 0-.5243.095-1.0105.285-1.4579.197-.4546.535-.8531 1.013-1.1959.486-.3495 1.161-.6292 2.026-.8391.872-.2096 1.983-.3321 3.334-.3671 0-.6362-.162-1.0942-.485-1.3739-.317-.2797-.795-.4195-1.435-.4195-.577 0-1.048.0977-1.414.2936-.366.1957-.594.3287-.686.3985-.098.084-.218.1153-.359.0945-.19-.0279-.393-.0769-.612-.1469-.211-.0698-.439-.1504-.685-.2413-.036-.0139-.074-.035-.116-.0629-.043-.035-.067-.0838-.074-.1467 0-.035.003-.0771.01-.1259.007-.0561.025-.154.053-.2939.028-.1398.07-.311.127-.5138.056-.2099.109-.3706.158-.4825.063-.119.169-.2307.316-.3357.12-.0978.482-.2552 1.087-.472.605-.2167 1.481-.3252 2.627-.3252 3.159 0 4.738 1.528 4.738 4.5837v5.9368c0 .1327-.039.2483-.116.346-.07.0909-.194.1364-.37.1364h-1.582c-.113 0-.215-.0139-.306-.0418-.084-.0351-.165-.098-.243-.1889l-.654-.839h-.074c-.323.4685-.76.8075-1.308 1.0173-.542.2097-1.168.3147-1.878.3147zm1.16-2.4334c.648 0 1.136-.1643 1.467-.493.331-.3286.542-.6678.633-1.0175v-1.1643c-.978 0-1.713.0769-2.205.2309-.485.1467-.809.3426-.971.5873-.162.2378-.243.4964-.243.7761 0 .4056.127.6889.38.8496.253.154.567.2309.939.2309zm18.56-4.5104v6.1256c0 .2099-.046.3566-.137.4406-.085.0769-.232.1153-.444.1153h-2.173c-.211 0-.362-.0384-.454-.1153-.084-.084-.126-.2307-.126-.4406v-5.58c0-.7623-.162-1.3183-.486-1.6678-.323-.3497-.763-.5246-1.319-.5246-.555 0-.984.119-1.287.3568-.295.2376-.524.5384-.686.902v6.5136c0 .2099-.045.3566-.137.4406-.084.0769-.232.1153-.443.1153h-2.174c-.21 0-.362-.0384-.453-.1153-.085-.084-.127-.2307-.127-.4406v-8.7897c0-.1678.035-.2971.106-.388.147-.1959.323-.3952.527-.598.211-.2028.468-.4195.77-.6502.092-.0701.18-.1049.264-.1049.078 0 .166.0348.264.1049.296.2307.549.4511.76.6607.211.2099.397.4266.559.6503h.053c.119-.1538.299-.3321.538-.5349.239-.2097.573-.3951 1.002-.556.436-.1606.992-.2412 1.667-.2412.662 0 1.291.133 1.889.3987s1.087.7132 1.466 1.3426c.387.6292.581 1.4893.581 2.5801zm6.911 6.9438c-2.349 0-3.524-1.2132-3.524-3.6398v-4.9192h-1.192c-.212 0-.359-.0419-.444-.1259-.077-.0908-.116-.2412-.116-.4511v-1.2899c0-.2099.039-.3568.116-.4406.085-.0909.232-.1364.444-.1364h1.192v-1.6887c0-.1679.035-.2973.105-.3881.296-.3845.728-.8006 1.298-1.2483.098-.0698.186-.1048.264-.1048.084 0 .169.035.253.1048.303.2309.556.4477.76.6504.211.2028.39.4022.538.5979.07.0908.105.2202.105.3881v1.6887h1.868c.211 0 .355.0455.433.1364.084.0838.126.2307.126.4406v1.2899c0 .2099-.042.3603-.126.4511-.078.084-.222.1259-.433.1259h-1.868v4.3425c0 1.1187.408 1.6781 1.224 1.6781.127 0 .243-.0105.349-.0314.105-.0279.196-.056.274-.084.148-.0558.25-.0769.306-.0629.063.014.119.0909.169.2307l.612 1.6259c.063.1749.021.3008-.127.3777-.106.0487-.362.1398-.77.2726-.401.1398-1.013.2098-1.836.2098zm7.512 0c-.752 0-1.379-.0629-1.878-.1888-.492-.1259-.89-.2762-1.192-.4511-.295-.1817-.528-.3461-.696-.493-.127-.1188-.141-.2517-.043-.3985l1.076-1.5838c.155-.2238.331-.2378.528-.0421.204.1959.478.3882.823.577.352.1817.788.2728 1.308.2728.465 0 .844-.0771 1.14-.2309.302-.1607.454-.3916.454-.6921 0-.2099-.067-.3811-.201-.5141-.133-.1327-.369-.2691-.707-.409-.337-.1398-.809-.3181-1.414-.5349-.893-.3218-1.568-.7099-2.025-1.1643-.458-.4545-.686-1.1189-.686-1.993 0-.804.221-1.4579.664-1.9615.451-.5033 1.024-.8704 1.72-1.1013.704-.2376 1.435-.3566 2.195-.3566.964 0 1.639.0909 2.026.2728.394.1749.647.3111.759.409.106.0909.18.1959.222.3147.092.2728.162.6329.211 1.0803.028.2589-.039.4301-.2.5141-.085.0489-.218.1014-.401.1572-.183.0561-.366.1051-.549.1469-.183.0419-.32.063-.412.063-.028 0-.059-.0071-.094-.0211-.029-.0208-.081-.0664-.159-.1364-.091-.0908-.249-.1957-.475-.3145-.218-.119-.52-.1785-.907-.1785-.38 0-.7.063-.96.1888-.253.1191-.38.3324-.38.64 0 .3355.162.5873.485.7553.331.1677.873.3845 1.625.6502.591.2028 1.105.4266 1.541.6713.443.2378.784.5523 1.023.9439.239.3847.359.9056.359 1.563 0 .853-.236 1.5419-.707 2.0662-.464.5175-1.062.8952-1.794 1.1328-.724.2309-1.484.3462-2.279.3462z" fill="#6ec1e4"/><path d="m12.9683 45.1235v8.5798l8.4245 8.5925h3.6566c.038-5.0227 0-15.4867 0-17.1723 0-1.9334-1.5198-2.1419-2.2225-2.1609-7.7501 0 0 .0009-7.7501 0-1.8378-.0002-2.1465 1.4217-2.1085 2.1609z" fill="#54595f"/><path d="m66.336 39.4713v11.7258l-12.0811 11.7432c-.038-6.8645 0-21.1653 0-23.469 0-2.6422 1.5198-2.927 2.2225-2.953 7.7502 0 0 .0011 7.7502 0 1.8376-.0002 2.1464 1.9428 2.1084 2.953z" fill="#54595f"/><path d="m17.5031 26.6368-17.5031 23.0924 17.5031-16.9702 17.7192 16.9702 40.4085-41.35149 2.3769 2.36299 2.7011-10.7407-11.2365 2.79257 2.9172 2.68516-37.1672 38.66637z" fill="#6ec1e4"/><g clip-rule="evenodd" fill-rule="evenodd"><path d="m52.0541 25.5593-11.5821 12.0493v-10.3462c-.0043-.1996-.0151-.4211-.0268-.6563-.086-1.7496-.2096-4.2655 2.0494-4.2655h3.7172 3.7173c1.8156 0 2.085.4008 2.125 3.2187zm-11.5821 40.818v-20.7314l11.5947-11.8652c.0086 8.6655.0211 23.2286-.0057 31.6299z" fill="#54595f"/><path d="m38.2447 39.7107-3.0224 3.1445-8.6407-8.5373v-13.5429c-.0043-.2327-.0151-.4908-.0268-.7651-.0864-2.0397-.2109-4.973 2.06-4.9729l3.7368.0001s-.0002-.0001 3.7366-.0001c2.1431 0 2.1431.6443 2.1431 5.738 0 .9791.0018 3.0731.0041 5.8874v.003c.0029 3.492.0067 8.0918.0093 13.0453zm-11.6631 25.2702v-22.0235l8.6407 8.2755 3.0252-3.0959c.0007 6.778-.003 13.4434-.0162 18.2402z" fill="#54595f"/><path d="m39.026 65.556c-14.3547 0-26.3233-10.1566-29.03046-23.6352l-2.7116 2.6291c3.73646 13.9506 16.53186 24.2283 31.74206 24.2283 18.1399 0 32.8454-14.6184 32.8454-32.6516 0-6.254-1.7689-12.0976-4.8363-17.0629l-2.3392 2.3938c2.5026 4.3184 3.9341 9.3276 3.9341 14.6691 0 16.2534-13.2541 29.4294-29.604 29.4294z" fill="#6ec1e4"/></g></svg>